<?xml version="1.0" encoding="UTF-8" standalone="no"?>
<svg
   xmlns:dc="http://purl.org/dc/elements/1.1/"
   xmlns:cc="http://creativecommons.org/ns#"
   xmlns:rdf="http://www.w3.org/1999/02/22-rdf-syntax-ns#"
   xmlns:svg="http://www.w3.org/2000/svg"
   xmlns="http://www.w3.org/2000/svg"
   xmlns:sodipodi="http://sodipodi.sourceforge.net/DTD/sodipodi-0.dtd"
   xmlns:inkscape="http://www.inkscape.org/namespaces/inkscape"
   version="1.1"
   x="0px"
   y="0px"
   viewBox="0 0 256 256"
   enable-background="new 0 0 100 100"
   xml:space="preserve"
   id="svg2"
   inkscape:version="0.48.5 r10040"
   width="100%"
   height="100%"
   sodipodi:docname="icon-ski-location-orange.svg"
   inkscape:export-filename="/home/norm/Documents/Websites/siteweb-lacledesbois/img/icon-ski-location-orange256px.png"
   inkscape:export-xdpi="90"
   inkscape:export-ydpi="90"><metadata
     id="metadata20"><rdf:RDF><cc:Work
         rdf:about=""><dc:format>image/svg+xml</dc:format><dc:type
           rdf:resource="http://purl.org/dc/dcmitype/StillImage" /><dc:title></dc:title></cc:Work></rdf:RDF></metadata><defs
     id="defs18" /><sodipodi:namedview
     pagecolor="#ffffff"
     bordercolor="#666666"
     borderopacity="1"
     objecttolerance="10"
     gridtolerance="10"
     guidetolerance="10"
     inkscape:pageopacity="0"
     inkscape:pageshadow="2"
     inkscape:window-width="1050"
     inkscape:window-height="591"
     id="namedview16"
     showgrid="false"
     inkscape:zoom="0.944"
     inkscape:cx="181.25203"
     inkscape:cy="116.45532"
     inkscape:window-x="0"
     inkscape:window-y="27"
     inkscape:window-maximized="0"
     inkscape:current-layer="svg2" /><g
     id="g4315"
     transform="translate(26.169119,28.445405)"><path
       inkscape:connector-curvature="0"
       style="fill:#f05f40;fill-opacity:1"
       id="path4"
       d="m 66.900748,129.72028 c 0,0 -15.381747,87.01464 -15.46329,89.2598 -0.15765,3.99289 0.932309,5.46882 8.980614,6.46636 6.251637,0.77738 8.173337,-0.37238 9.274168,-3.95756 1.098114,-3.58517 11.331774,-90.23831 11.331774,-90.23831 l 5.816741,-36.770503 c 0,0 1.503111,0.418588 2.065758,-1.168785 0.410434,-1.16063 -0.755632,-7.803674 -0.755632,-7.803674 0,0 12.693539,-68.830538 13.802529,-74.973448 1.12258,-6.14563 4.23752,-22.96254 4.57729,-25.25118 0.3914,-2.73985 -0.55722,-12.56579 -9.097496,-13.63129 -9.168163,-1.14704 -12.647335,8.18965 -13.079514,11.09802 -0.424024,2.91109 -10.6903,100.751937 -10.6903,100.751937 0,0 -3.117665,6.531603 -2.989914,7.76834 0.130469,1.098114 1.43244,1.36177 1.43244,1.36177 l -5.205168,37.088523 z" /><path
       inkscape:connector-curvature="0"
       style="fill:#f05f40;fill-opacity:1"
       id="path6"
       d="m 67.262256,133.73763 c 0,0 20.222689,86.29979 21.048993,88.4335 1.451467,3.77273 3.093201,4.77571 11.168687,3.02525 6.284254,-1.36721 7.651464,-3.08505 7.265494,-6.79526 -0.38054,-3.71837 -25.392526,-87.96054 -25.392526,-87.96054 L 72.146688,94.191948 c 0,0 1.796666,-0.228321 1.69066,-1.897236 -0.06795,-1.214992 -4.028229,-6.912137 -4.028229,-6.912137 0,0 -15.50678,-68.447285 -16.903885,-74.552145 -1.397105,-6.09942 -5.180705,-22.83478 -5.773252,-25.07994 -0.723015,-2.69092 -5.57483,-11.53834 -14.155882,-9.67644 -9.206217,2.00867 -8.782193,11.87539 -8.031996,14.73212 0.763787,2.8676 30.222592,97.555446 30.222592,97.555446 0,0 -1.2612,6.955627 -0.130469,8.461456 1.019289,1.359052 2.313106,0.58711 2.313106,0.58711 l 9.912923,36.327448 z" /><path
       id="path8"
       d="m 132.93435,210.69258 3.51179,-125.576379 1.86462,0.06523 c 0.54362,0.01631 1.00842,-0.413152 1.02201,-0.956772 l 0.5409,-17.591565 c 0.0163,-0.543621 -0.41587,-1.005699 -0.96221,-1.022007 l -7.83085,-0.271811 c -0.54634,-0.01631 -1.00842,0.410434 -1.02201,0.959491 l -0.0272,0.886101 c -1.06278,0.08426 -2.19079,0.122315 -4.35984,0.793687 -2.88663,0.894256 -21.28547,8.918097 -13.8732,15.871006 7.17308,6.727305 14.37605,-3.394912 18.02918,-10.010775 l -0.30986,10.048828 c -0.0163,0.543621 0.41587,1.005698 0.96221,1.024725 l 2.49793,0.08426 -3.63682,125.570941 c -4.57457,-0.0326 -8.0483,0.42946 -8.07549,1.12801 -0.019,0.70671 3.42753,1.40798 7.99123,1.68523 l -0.0245,0.8861 c 0,0 0.0788,12.50327 1.6825,12.60656 1.60096,0.10057 1.89996,-12.03576 1.89996,-12.03576 l 0.0353,-1.32915 c 4.55011,0.0245 7.99938,-0.43762 8.01569,-1.14161 0.0299,-0.70398 -3.40035,-1.39166 -7.93143,-1.67435 z M 114.3833,81.628874 c -2.84042,-2.935552 4.01192,-7.93958 10.08416,-10.853387 1.97606,-0.948618 4.06356,-1.435158 5.50688,-1.687942 l -0.005,0.125033 c -2.4327,5.142651 -10.51362,17.648645 -15.5856,12.416296 z"
       inkscape:connector-curvature="0"
       style="fill:#f05f40;fill-opacity:1" /><path
       id="path10"
       d="m 165.11126,70.476496 c -1.2612,-0.570802 -2.15546,-0.850767 -2.90293,-1.043752 l 0.10328,-0.875229 c 0.0652,-0.540903 -0.32617,-1.03288 -0.86979,-1.092678 l -7.7928,-0.869793 c -0.53819,-0.0598 -1.03288,0.334327 -1.10083,0.875229 l -2.06304,17.474687 c -0.0652,0.543621 0.32617,1.035598 0.86435,1.092678 l 1.93257,0.217448 -13.34588,125.263794 c -4.19947,-0.11416 -7.33616,0.22289 -7.38781,0.89154 -0.0462,0.65234 2.97633,1.41069 7.09969,1.85918 -0.16309,2.02227 -0.96493,13.13116 0.64419,13.28337 1.7722,0.16853 2.91924,-12.8376 2.91924,-12.8376 l 0.0163,-0.16309 c 4.94151,0.25007 8.84199,-0.0924 8.89092,-0.8263 0.0544,-0.7366 -3.71293,-1.59009 -8.59193,-2.00052 l 13.20455,-125.081685 2.40824,0.269092 c 0.5409,0.0598 1.03288,-0.334327 1.10083,-0.875229 l 0.95134,-8.02656 c 3.05514,6.83603 8.51853,15.147991 15.67258,9.967286 8.23585,-5.966237 -9.00508,-16.251541 -11.75308,-17.501868 z m 9.46987,14.965877 c -4.8953,3.919505 -10.54624,-5.191577 -12.28854,-11.60902 -0.15765,-0.576237 -0.32617,-2.370186 -0.32617,-2.370186 1.22586,0.451205 2.65558,1.076369 3.98745,1.940726 5.65638,3.658567 11.81832,9.488899 8.62726,12.03848 z"
       inkscape:connector-curvature="0"
       style="fill:#f05f40;fill-opacity:1" /><text
       sodipodi:linespacing="125%"
       id="text3029"
       y="22.303093"
       x="132.58139"
       style="font-size:65.23448181px;font-style:normal;font-variant:normal;font-weight:bold;font-stretch:normal;line-height:125%;letter-spacing:0px;word-spacing:0px;fill:#f05f40;fill-opacity:1;stroke:none;font-family:FreeSans;-inkscape-font-specification:Sans Bold"
       xml:space="preserve"><tspan
         style="font-size:43.48965454px;font-style:normal;font-variant:normal;font-weight:normal;font-stretch:normal;fill:#f05f40;fill-opacity:1;font-family:FreeSans;-inkscape-font-specification:FreeSans"
         y="22.303093"
         x="132.58139"
         id="tspan3031"
         sodipodi:role="line">$</tspan></text>
</g></svg>